<svg xmlns="http://www.w3.org/2000/svg" version="1.1" xmlns:xlink="http://www.w3.org/1999/xlink" xmlns:svgjs="http://svgjs.dev/svgjs" width="2000" height="1588" viewBox="0 0 2000 1588"><g transform="matrix(1,0,0,1,0.9014798016352188,0.3759396642486763)"><svg viewBox="0 0 243 193" data-background-color="#ffffff" preserveAspectRatio="xMidYMid meet" height="1588" width="2000" xmlns="http://www.w3.org/2000/svg" xmlns:xlink="http://www.w3.org/1999/xlink"><g id="tight-bounds" transform="matrix(1,0,0,1,-0.1095297958986805,-0.04569039999999802)"><svg viewBox="0 0 243.21905959179736 193.0913808" height="193.0913808" width="243.21905959179736"><g><svg viewBox="0 0 243.21905959179736 193.0913808" height="193.0913808" width="243.21905959179736"><g><svg viewBox="0 0 243.21905959179736 193.0913808" height="193.0913808" width="243.21905959179736"><g><svg viewBox="0 0 243.21905959179736 193.0913808" height="193.0913808" width="243.21905959179736"><g><path d="M0 193.091v-193.091h243.219v193.091z" fill="#cc970e" stroke="transparent" stroke-width="0" rx="0%" data-fill-palette-color="tertiary"></path><path d="M4.509 188.582v-184.073h234.201v184.073z" fill="#ffffff" stroke="transparent" stroke-width="0" rx="0%" data-fill-palette-color="quaternary"></path><path d="M13.527 179.564v-166.037h216.165v166.037z" fill="#cc970e" stroke="transparent" stroke-width="0" data-fill-palette-color="tertiary"></path></g><g transform="matrix(1,0,0,1,27.054309599999996,27.054309599999996)" id="textblocktransform"><svg viewBox="0 0 189.11044039179737 138.9827616" height="138.9827616" width="189.11044039179737" id="textblock"><g><svg viewBox="0 0 189.11044039179737 138.9827616" height="138.9827616" width="189.11044039179737"><g transform="matrix(1,0,0,1,0,0)"><svg width="189.11044039179737" viewBox="1.5 -35 56.4 41.45" height="138.9827616" data-palette-color="#ffffff"><path d="M18-35L18-35Q23.9-35 27.73-30.5 31.55-26 31.55-19.05L31.55-19.05Q31.55-10.95 26.55-5.05L26.55-5.05 33.15 2.8 28.2 6.45 22.45-1.55Q18.95 0.55 15.05 0.55L15.05 0.55Q9.3 0.55 5.4-4.08 1.5-8.7 1.5-15.5L1.5-15.5Q1.5-24 6.15-29.5 10.8-35 18-35ZM24.75-16.25L24.75-16.25Q24.75-28.9 16.45-28.9L16.45-28.9Q12.65-28.9 10.48-26.08 8.3-23.25 8.3-17.63 8.3-12 10.63-8.38 12.95-4.75 17-4.75L17-4.75Q18.5-4.75 19.8-5.35L19.8-5.35 13.85-13.7 17.3-16.1 23.3-8.95Q24.75-12 24.75-16.25ZM34.65-4.55L38.55-9.95Q42.8-5.7 47.05-5.7L47.05-5.7Q49.25-5.7 50.57-6.73 51.9-7.75 51.9-9.38 51.9-11 50.3-12.13 48.7-13.25 46.42-14.1 44.15-14.95 41.9-16.03 39.65-17.1 38.05-19.1 36.45-21.1 36.45-23.95L36.45-23.95Q36.45-28.45 40.2-31.73 43.95-35 49.1-35L49.1-35Q51.45-35 53.65-34.5 55.85-34 57.9-33.05L57.9-33.05 54.5-25.75Q53.1-26.85 50.67-27.78 48.25-28.7 46.42-28.7 44.6-28.7 43.47-27.83 42.35-26.95 42.35-25.5 42.35-24.05 43.95-22.93 45.55-21.8 47.82-20.95 50.1-20.1 52.37-19.07 54.65-18.05 56.25-16.05 57.85-14.05 57.85-11.2L57.85-11.2Q57.85-6.5 54.1-2.98 50.35 0.55 45.35 0.55L45.35 0.55Q41.6 0.55 38.7-1.25L38.7-1.25Q36.15-2.8 35.1-4L35.1-4 34.65-4.55Z" opacity="1" transform="matrix(1,0,0,1,0,0)" fill="#ffffff" class="wordmark-text-0" data-fill-palette-color="quaternary" id="text-0"></path></svg></g></svg></g></svg></g></svg></g><g></g></svg></g></svg></g><defs></defs></svg><rect width="243.21905959179736" height="193.0913808" fill="none" stroke="none" visibility="hidden"></rect></g></svg></g></svg>